<?xml version="1.0" encoding="UTF-8"?>
<svg xmlns="http://www.w3.org/2000/svg" xmlns:xlink="http://www.w3.org/1999/xlink" width="2836" height="2835" viewBox="0 0 2836 2835">

<path fill-rule="evenodd" fill="rgb(1.997375%, 1.000977%, 1.000977%)" fill-opacity="1" d="M 1211.949219 2450.34375 C 1238.820312 2451.675781 1260.460938 2463.183594 1297.609375 2461.597656 C 1379.878906 2458.078125 1437.738281 2411.398438 1466.871094 2330.863281 C 1484.710938 2462.675781 1312.679688 2528.414062 1226.488281 2463.84375 C 1219.769531 2458.808594 1216.679688 2453.601562 1211.949219 2450.34375 Z M 1126.019531 2235.410156 C 1162.230469 2240.785156 1180.480469 2251.601562 1224.421875 2248.765625 C 1257.570312 2246.628906 1285.820312 2236.726562 1312.238281 2222.71875 C 1338.070312 2209.019531 1360.628906 2189.480469 1375.351562 2170.742188 C 1384.398438 2159.226562 1390.238281 2151.332031 1397.660156 2137.242188 C 1404.460938 2124.347656 1408.96875 2106.375 1416.121094 2096.585938 C 1435.230469 2126.339844 1454.980469 2240.875 1452.21875 2284.875 C 1448.199219 2348.792969 1406.371094 2400.972656 1361.28125 2421.695312 C 1307.121094 2446.582031 1220.910156 2445.460938 1179.03125 2410.230469 C 1138.589844 2376.207031 1119.910156 2307.75 1126.019531 2235.410156 Z M 1520.691406 2012.683594 C 1498.820312 2000.722656 1483.570312 1971.285156 1496.378906 1939.613281 C 1506.730469 1914.027344 1527.070312 1901.128906 1537.851562 1880.21875 C 1563.410156 1830.671875 1572.328125 1797.589844 1621.21875 1757.609375 C 1746.25 1655.371094 1884 1711.628906 1885.671875 1789.238281 C 1840.820312 1725.398438 1712.109375 1702.21875 1621.480469 1796.410156 C 1605.71875 1812.789062 1578.25 1846.210938 1576.890625 1878.105469 C 1591.328125 1868.117188 1597.148438 1847.378906 1618.441406 1828.070312 C 1664.609375 1786.179688 1708.171875 1731.699219 1807.179688 1757.519531 C 1925.960938 1788.488281 1885.949219 1895.949219 1786.300781 1954.140625 C 1742.828125 1979.519531 1709.050781 2010.4375 1675.28125 2024.375 C 1627.511719 2044.089844 1561.121094 2045.039062 1538.75 2004.980469 C 1526.148438 1982.40625 1535.738281 1956.210938 1547.121094 1938.046875 C 1563.148438 1912.464844 1568.808594 1910.601562 1603.859375 1919.152344 C 1652.96875 1931.136719 1721.089844 1961.195312 1740.390625 1964.597656 C 1722.929688 1933.714844 1648.011719 1907.578125 1598.960938 1899.644531 C 1558.070312 1893.03125 1548.53125 1907.304688 1532.691406 1930.558594 C 1513.019531 1959.441406 1513.550781 1975.457031 1520.691406 2012.683594 Z M 1475.179688 1970.757812 C 1409.230469 1929.128906 1454.460938 1721.871094 1591.328125 1623.121094 C 1713.519531 1534.96875 1903.898438 1587.21875 1893.480469 1752.199219 C 1874.769531 1727.851562 1872.261719 1717.128906 1843.109375 1700.910156 C 1770.058594 1660.269531 1681.550781 1680.359375 1622.621094 1727.660156 C 1553.738281 1782.929688 1553.199219 1809 1521.511719 1870.628906 C 1504.921875 1902.871094 1483.429688 1892.679688 1475.179688 1970.757812 Z M 1471.898438 1444.039062 C 1451.03125 1416.789062 1479.308594 1375.921875 1501.730469 1369.691406 C 1535.511719 1360.300781 1562.320312 1383.660156 1565.851562 1409.601562 C 1563.648438 1410.691406 1492.570312 1431.929688 1491.261719 1432.171875 C 1489.359375 1417.589844 1493.441406 1407.851562 1496.410156 1395.320312 C 1468.828125 1411 1494.671875 1432.601562 1471.898438 1444.039062 Z M 1437.039062 1466.070312 C 1415.109375 1429.621094 1444.261719 1369.648438 1456.328125 1338.308594 C 1463.578125 1319.519531 1468.648438 1293.941406 1475.699219 1277.371094 C 1481.5 1263.738281 1514.71875 1251.050781 1531.480469 1253.140625 C 1542.980469 1269.421875 1564.359375 1341.628906 1560.621094 1369.308594 C 1555.980469 1361.988281 1536.53125 1354.148438 1520.738281 1353.71875 C 1501 1353.191406 1488.191406 1360.429688 1476.46875 1368.921875 C 1440.898438 1394.679688 1452.238281 1415.441406 1454.359375 1454.921875 C 1445.808594 1463.191406 1448.800781 1462.601562 1437.039062 1466.070312 Z M 1137.421875 1251.769531 C 1225.148438 1220.578125 1249.078125 1341.199219 1169.078125 1371.609375 C 1084 1403.949219 1057.769531 1280.089844 1137.421875 1251.769531 Z M 1053.171875 1311.558594 C 1050.511719 1333.25 1033.988281 1374.988281 1069.089844 1415 C 1089.929688 1438.761719 1116.980469 1454.828125 1158.089844 1453.910156 C 1243.171875 1452.011719 1262.460938 1389.75 1271.941406 1310.550781 C 1303.351562 1306.820312 1401.53125 1346.800781 1422.921875 1364.269531 C 1418.789062 1396.078125 1400.300781 1408.808594 1407.199219 1453.621094 C 1410.148438 1472.761719 1420.019531 1479.578125 1411.890625 1492.28125 C 1404.921875 1503.179688 1396.609375 1503.410156 1387.269531 1521.171875 C 1391.429688 1533.578125 1392.570312 1532.210938 1402.171875 1541.089844 C 1421.03125 1531.660156 1466.949219 1452.398438 1562.308594 1439.839844 C 1655.75 1427.53125 1707.730469 1491.75 1700.179688 1550.640625 C 1618.71875 1554.601562 1558.210938 1612.589844 1518.171875 1658.121094 C 1495.960938 1683.378906 1478.039062 1712.300781 1460.339844 1746.71875 C 1451.769531 1763.390625 1445.488281 1778.140625 1438.660156 1798.179688 C 1434.191406 1811.308594 1428.511719 1841.445312 1423.089844 1850.988281 C 1387.921875 1831.578125 1415.230469 1799.519531 1415.390625 1772.289062 C 1415.46875 1758.660156 1410.328125 1738.109375 1409.121094 1723.359375 C 1407.761719 1706.660156 1408.269531 1689.601562 1407.398438 1671.710938 L 1378.191406 1670.589844 C 1377.460938 1709.480469 1384.488281 1741.640625 1384.410156 1775.121094 C 1358.730469 1788.949219 1331.320312 1800.28125 1301 1810.421875 C 1299.359375 1844.011719 1325.601562 1925.496094 1336.519531 1963.390625 C 1345.320312 1993.925781 1345.210938 1995.96875 1357.089844 2002.0625 C 1424.730469 2036.765625 1379.308594 2126.902344 1341.871094 2165.097656 C 1308.289062 2199.351562 1225.109375 2237.050781 1158.460938 2214.710938 C 1072.371094 2185.859375 1117.410156 2122.976562 1108.820312 2100.75 C 1103.621094 2087.273438 1096.191406 2075.136719 1089.988281 2059.804688 C 1032.148438 1916.71875 999.753906 1843.8125 969.410156 1685.71875 C 957.820312 1625.339844 935.28125 1411.058594 980.84375 1361.308594 C 996.691406 1344 1028.640625 1318.171875 1053.171875 1311.558594 Z M 1620.820312 1371.238281 C 1621.210938 1387.410156 1624.539062 1399.140625 1626.089844 1413.96875 C 1575.550781 1411.519531 1593.300781 1405.109375 1583.929688 1359.78125 C 1579.378906 1337.800781 1569.53125 1304.011719 1567.910156 1285.621094 C 1579.78125 1291.230469 1604.910156 1322.050781 1612.609375 1331.78125 C 1625.710938 1348.359375 1620.238281 1347.589844 1620.820312 1371.238281 Z M 1275.058594 1215.96875 C 1299.171875 1226.628906 1314.878906 1300.980469 1447.910156 1279.921875 C 1446.878906 1297.488281 1438.449219 1331.710938 1430.058594 1342.269531 C 1360.96875 1312.300781 1366.441406 1301.371094 1271.480469 1285.058594 Z M 1712.699219 1273.621094 C 1718.230469 1241.671875 1749.25 1222.53125 1783.628906 1215.921875 C 1971.058594 1179.929688 2041.730469 1511.578125 1909.621094 1585.710938 C 1858.398438 1614.449219 1858.191406 1594.828125 1825.070312 1575.988281 C 1790.601562 1556.378906 1769.890625 1554.390625 1727.539062 1547.890625 C 1714.421875 1414.871094 1625.109375 1466.808594 1643.5 1354.339844 C 1647.828125 1327.828125 1657.878906 1307.769531 1680.359375 1300.699219 C 1762.339844 1274.929688 1801.140625 1468.269531 1710.628906 1432.519531 C 1680.980469 1420.808594 1682.859375 1406.148438 1667.148438 1385.050781 C 1661.570312 1398.179688 1670.328125 1465.089844 1754.320312 1457.738281 C 1768.921875 1476.820312 1770 1480.339844 1794.550781 1491.328125 C 1797.570312 1572.019531 1921.039062 1553.78125 1921.078125 1508.488281 C 1799.5 1573.351562 1792.46875 1454.519531 1874.75 1436.140625 L 1902.878906 1431.441406 C 1903.429688 1430.300781 1904.859375 1430.960938 1905.769531 1430.519531 C 1896.179688 1420.660156 1886.570312 1418.890625 1872.839844 1419.199219 C 1820.800781 1420.378906 1805.308594 1459.808594 1796.160156 1468.949219 C 1778.800781 1462.890625 1768.890625 1453.148438 1777.488281 1433.128906 C 1785.578125 1414.289062 1782.710938 1394.960938 1792.339844 1384.699219 C 1823.070312 1352 1872.308594 1363.738281 1888.839844 1353.808594 C 1863.78125 1322.761719 1803.910156 1350.171875 1782.730469 1363.121094 C 1777.640625 1350.960938 1765.699219 1324.238281 1763.621094 1314.101562 C 1806.691406 1285.328125 1799.75 1290.238281 1860.988281 1282.988281 C 1831.828125 1248.480469 1772.011719 1278.121094 1750.828125 1298.058594 C 1749.191406 1297.25 1715.300781 1275.808594 1712.699219 1273.621094 Z M 1197.078125 1137.691406 C 1197.449219 1137.230469 1198.679688 1136.960938 1198.960938 1135.71875 C 1199.238281 1134.46875 1200.210938 1134.378906 1200.898438 1133.78125 C 1234.730469 1172.949219 1226.039062 1158.519531 1259.179688 1185.660156 C 1259.039062 1219.089844 1254.230469 1279.570312 1250.511719 1312.871094 C 1245.421875 1358.339844 1236.421875 1384.519531 1211.480469 1407.171875 C 1157.820312 1455.898438 1048.820312 1423.03125 1074.691406 1325.828125 C 1090.25 1358.691406 1085.910156 1381.820312 1131.359375 1391.101562 C 1171.089844 1399.210938 1198.371094 1380.078125 1214.878906 1358.378906 C 1245.671875 1317.929688 1251.179688 1230.390625 1140.371094 1233.050781 Z M 1785.519531 973.570312 C 1798.269531 968.878906 1815.929688 971.710938 1826.089844 978.601562 C 1881.121094 1015.910156 1803.421875 1171.78125 1709.789062 1154.738281 C 1714.660156 1142.089844 1721.511719 1127.03125 1725.289062 1112.179688 C 1728.789062 1098.46875 1728.140625 1071.878906 1734.679688 1061.988281 C 1737.21875 1058.140625 1743.921875 1053.738281 1749.699219 1045.828125 C 1770.898438 1016.820312 1777.5 1028.808594 1806.511719 1019.101562 C 1797.308594 1004.800781 1782 1010.578125 1766.828125 1012.519531 C 1771.011719 995.441406 1770.601562 979.058594 1785.519531 973.570312 Z M 1718.851562 998.179688 C 1714.160156 985.441406 1702.960938 988.25 1712.511719 970.578125 C 1719.21875 958.171875 1765.699219 935.628906 1769.421875 917.101562 C 1775.148438 951.679688 1745.589844 1067.558594 1708.988281 1044.589844 C 1698.761719 1027.21875 1712.710938 1009.859375 1718.851562 998.179688 Z M 1170.941406 1061.769531 C 1176.089844 1097.898438 1183.601562 1106.121094 1167.441406 1136.46875 C 1145.390625 1177.871094 1117.769531 1214.78125 1092.511719 1249.941406 C 1070.691406 1280.328125 1067.199219 1270.570312 1035.679688 1287.441406 C 1002.390625 1305.25 991.925781 1319.070312 980.757812 1325.179688 C 981.425781 1293.449219 1023.421875 1226.238281 1021.828125 1204.398438 L 983.886719 1078.03125 C 966.1875 1011.601562 934.675781 873.058594 938.488281 798.921875 C 956.136719 801.300781 969.402344 808.339844 988.324219 812.660156 C 1008.148438 817.199219 1024.480469 817.980469 1046.539062 817.808594 C 1113.621094 817.269531 1123.101562 800.761719 1151.578125 798.511719 C 1153.601562 861.191406 1156.828125 916.171875 1161.289062 977.261719 C 1163.378906 1005.808594 1167.078125 1034.679688 1170.941406 1061.769531 Z M 1206.921875 755.488281 C 1209.589844 759.808594 1218.558594 793.050781 1221.511719 802.160156 C 1234.289062 841.640625 1221.988281 831.710938 1204.570312 841.28125 C 1204.769531 865.351562 1208.128906 879.578125 1186 885.238281 C 1185.488281 884.289062 1185.039062 883.058594 1184.78125 882.230469 C 1184.519531 881.398438 1183.949219 880.210938 1183.660156 879.171875 C 1179.679688 864.421875 1182 822 1183.828125 775.550781 Z M 1411.460938 660.988281 C 1444.21875 670.621094 1460.078125 708.378906 1475.800781 736.230469 C 1486.570312 711.410156 1465.839844 674.460938 1462.039062 650.519531 C 1494.339844 650.691406 1546.308594 663.820312 1576.109375 677.671875 C 1585.429688 682 1597.351562 687.101562 1604.789062 694.851562 C 1584.089844 714.621094 1557.539062 727.96875 1548.628906 758.621094 C 1585.628906 744.011719 1681.609375 670.21875 1702.328125 816.640625 L 1712.601562 806.269531 C 1712.96875 805.839844 1714.019531 805.398438 1714.28125 804.199219 C 1714.550781 802.988281 1715.371094 802.761719 1715.96875 802.089844 C 1735.25 814.238281 1736.601562 819.570312 1766.789062 821.710938 C 1780.558594 897.449219 1750.960938 914.839844 1714.808594 944.679688 C 1673.960938 978.398438 1707.761719 984.53125 1699.371094 1009.140625 C 1680.960938 1063.140625 1692.699219 1049.949219 1712.558594 1071.398438 C 1701.609375 1176.589844 1619.191406 1213.820312 1529.488281 1226.539062 C 1498.199219 1230.980469 1443.660156 1275.621094 1369.128906 1254.53125 C 1288.449219 1231.699219 1288.058594 1178.070312 1262.570312 1158.691406 C 1208.109375 1117.308594 1195.800781 1094.339844 1189.601562 1029.339844 C 1185.941406 990.960938 1180.960938 942.328125 1182.828125 904.039062 C 1216.171875 891.140625 1207.25 899.101562 1218.691406 863.878906 C 1225.21875 843.769531 1251.441406 854.851562 1240.820312 811.121094 C 1222.648438 736.269531 1217.808594 756.929688 1240.828125 682.441406 C 1273.050781 689.171875 1275.800781 695.769531 1311.519531 685.050781 C 1313.679688 689.050781 1312.660156 699.101562 1318.839844 706.808594 C 1327.609375 680.140625 1367.859375 648.160156 1411.460938 660.988281 Z M 1261.628906 667.140625 C 1264.890625 634.378906 1342.21875 594.210938 1386.160156 581.109375 C 1441.988281 564.449219 1511.5 566.570312 1565.949219 583.410156 C 1664.070312 613.761719 1761.378906 703.378906 1761.839844 799.378906 C 1741.648438 797.589844 1734.75 789.558594 1723.621094 781.691406 C 1724.160156 749.019531 1730.75 729.671875 1713.808594 703.929688 C 1701.320312 684.941406 1682.53125 674.238281 1650.96875 678.871094 C 1627.109375 682.371094 1631.800781 682.808594 1613.800781 671.558594 C 1603.621094 665.191406 1595.050781 660.660156 1583.941406 655.949219 C 1488.269531 615.378906 1461.339844 641.460938 1438.101562 617.03125 C 1421.628906 599.730469 1403.058594 587.199219 1374.289062 597.46875 C 1314 618.988281 1350.378906 676.878906 1261.628906 667.140625 Z M 1506.808594 547.890625 C 1515.339844 532.171875 1534.019531 506.820312 1546.628906 494.128906 C 1553.929688 504.46875 1565.539062 526.710938 1573.011719 533.980469 C 1588.550781 525.71875 1590.019531 516.558594 1610.101562 509.28125 L 1619.75 579.550781 C 1603.019531 574.75 1585.5 564.78125 1565.820312 559.089844 C 1546.769531 553.578125 1527.621094 549.820312 1506.808594 547.890625 Z M 1451.839844 547.441406 C 1437.148438 477.089844 1510.941406 415.441406 1608.789062 446.46875 C 1692.289062 472.949219 1718.089844 560.21875 1673.070312 613.410156 C 1663.199219 608.421875 1647.101562 596.238281 1636.421875 588.660156 L 1659.78125 576.609375 C 1654.78125 556.28125 1631.988281 481.210938 1621.828125 469.179688 C 1606.390625 479 1597.03125 491.230469 1579.988281 500.261719 C 1568.640625 485.898438 1563.78125 467.378906 1552.089844 453.339844 C 1539.429688 462.460938 1491.441406 511.179688 1477.019531 525.171875 L 1485.109375 546.558594 Z M 1316.429688 471.699219 C 1338.699219 455.5 1395.871094 434.660156 1425.710938 425.398438 C 1465.828125 412.929688 1518.039062 405.570312 1566.179688 409.128906 C 1663.710938 416.339844 1714.53125 470 1758.101562 527.160156 C 1797.410156 578.71875 1843.25 662.839844 1860.839844 737.980469 C 1871.441406 783.261719 1873.160156 834.03125 1862.371094 879.679688 C 1843.691406 958.761719 1825.710938 944.429688 1783.238281 952.089844 C 1781.351562 922.390625 1791.050781 887.28125 1788.28125 848.980469 C 1781.980469 761.78125 1750.921875 674.570312 1685.46875 625.160156 C 1693.738281 605.109375 1704.351562 601.238281 1708.761719 569.148438 C 1725.519531 447.101562 1561.519531 392.160156 1482.96875 444.410156 C 1428.730469 480.480469 1438.761719 513.710938 1435.808594 550.429688 C 1390.589844 554.660156 1343.140625 572.621094 1310.789062 593.089844 C 1292.789062 604.46875 1277.550781 615.859375 1263.191406 629.128906 C 1249.25 642.019531 1238.269531 658.511719 1225.480469 669.199219 L 1213.25 653.011719 C 1235.78125 618.679688 1301.441406 606.441406 1316.429688 471.699219 Z M 967.011719 706.800781 C 959.875 692.5 964.382812 701.570312 945.988281 687.25 C 938.136719 681.140625 933.335938 676.128906 927.667969 670.78125 C 888.078125 633.390625 864.511719 582.480469 861.941406 524.101562 C 853.523438 332.808594 1015.871094 217.300781 1145.941406 253.78125 C 1224.53125 275.820312 1272.671875 332.171875 1263.5 413.261719 L 1224.378906 413.308594 C 1215.519531 352.859375 1160.128906 291.109375 1091.628906 297.628906 C 1098.980469 308.160156 1181.71875 334.300781 1199.488281 419.398438 C 1191.769531 428.121094 1168.449219 441.078125 1157.828125 448.21875 C 1144.578125 395.828125 1093.101562 355.808594 1027.96875 354.941406 C 1034.199219 365.929688 1026.398438 355.640625 1033.660156 361.929688 C 1039.640625 367.121094 1048.550781 368.75 1055.578125 372.070312 C 1064.171875 376.109375 1073.070312 382.140625 1079.378906 386.628906 C 1104.210938 404.28125 1145.898438 449.460938 1132.929688 484.710938 C 1120.679688 518 1123.921875 512.410156 1125.589844 547.289062 C 1115.78125 552.691406 1105.941406 556.328125 1092.75 552.078125 C 1092.730469 441.140625 985.871094 418.460938 970.828125 426.378906 C 979.066406 434.820312 994.546875 441.75 1006.179688 449.261719 C 1122.691406 524.421875 1061.839844 617.710938 998.527344 589.378906 C 975.503906 579.078125 960.523438 552.609375 946.78125 529.21875 C 927.476562 594.261719 1033.238281 648.738281 1075.648438 591.320312 C 1093.28125 567.449219 1083.191406 583.308594 1113.410156 577.308594 C 1142.570312 571.53125 1127.488281 561.199219 1154.671875 572.410156 C 1192.269531 587.921875 1227.601562 569.359375 1238.628906 544.179688 C 1215.25 548.421875 1186.640625 568.921875 1158.78125 547.730469 C 1137.949219 531.878906 1144.871094 500.910156 1160.289062 480.828125 C 1242.988281 373.148438 1363.210938 466.859375 1240.058594 599.050781 C 1203.511719 638.28125 1144.589844 665.5 1134.191406 674.738281 C 1128.109375 680.140625 1133.101562 674.070312 1128.941406 680.898438 C 1148.019531 688.339844 1171.300781 670.769531 1189.488281 666.539062 C 1235.878906 710.230469 1169.128906 782.441406 1063.261719 790.871094 C 1022.238281 794.140625 979.734375 785.269531 947.738281 769.269531 C 921.933594 756.371094 885.617188 725.300781 905.367188 682.488281 C 925.503906 692.738281 935.371094 705.320312 967.011719 706.800781 Z M 833.859375 471.03125 L 833.859375 525.109375 C 838.875 538.269531 842.011719 573.179688 848.472656 592.980469 C 870.144531 659.410156 887.1875 641.410156 875.894531 673.789062 C 872.222656 684.320312 869.628906 696.269531 869.753906 708.691406 C 870.003906 733.320312 879.832031 751.589844 893.199219 764.53125 C 911.242188 782.011719 906.296875 792.191406 910.058594 830.839844 C 921.414062 947.578125 942.011719 1060.070312 973.71875 1172.089844 C 991.15625 1233.691406 981.820312 1197.71875 952.605469 1294.769531 C 924.769531 1387.238281 911.851562 1477.730469 919.554688 1580.789062 C 932.949219 1760.019531 997.902344 1946.066406 1067.148438 2086.21875 C 1088.390625 2129.214844 1077.308594 2103.539062 1073.359375 2148.613281 C 1070.269531 2183.882812 1079.429688 2190.136719 1091.261719 2212.085938 C 1096.488281 2221.804688 1098.300781 2320.441406 1111.019531 2356.203125 C 1129.769531 2408.949219 1152.859375 2414.289062 1163.949219 2428.863281 C 1226.148438 2510.644531 1233.378906 2486.191406 1280.921875 2511.359375 L 1338.699219 2511.359375 C 1363.320312 2499.175781 1386.691406 2507.34375 1428.558594 2475.035156 C 1517.910156 2406.113281 1491.339844 2291.460938 1471.359375 2191.101562 C 1464.140625 2154.84375 1425.75 2035.203125 1408.378906 2006.664062 C 1386.050781 1970 1372.230469 1992.699219 1362.921875 1957.742188 C 1354.109375 1924.609375 1336.890625 1864.105469 1335.171875 1833.988281 L 1380.46875 1813.890625 C 1376.789062 1861.59375 1387.03125 1872.375 1418.78125 1887.390625 C 1419.199219 1953.691406 1445.808594 1981.871094 1483.289062 2008.386719 C 1497.371094 2018.355469 1497.980469 2034.785156 1545.210938 2051.078125 C 1636.621094 2082.601562 1708.128906 2040.902344 1757.621094 1998.578125 C 1795.101562 1966.523438 1810.730469 1969.613281 1845.101562 1939.707031 C 1903.28125 1889.078125 1912.191406 1865.011719 1914.308594 1793.011719 C 1916.511719 1718.558594 1942.261719 1723.691406 1884.011719 1625.769531 C 1893.890625 1619.691406 1914.609375 1614.910156 1927.5 1607.25 C 2068.511719 1523.511719 1996.210938 1210.558594 1836.378906 1187.921875 C 1804.359375 1183.378906 1762.359375 1191.621094 1737.390625 1204.511719 C 1682.949219 1232.589844 1693.96875 1265.960938 1683.421875 1271.609375 C 1663.671875 1282.199219 1644.71875 1281.460938 1632.46875 1312.121094 C 1620.101562 1301.628906 1611.769531 1288.539062 1600.621094 1277.410156 L 1570.410156 1251.199219 C 1569.820312 1250.628906 1568.859375 1249.570312 1568.378906 1249.089844 C 1567.890625 1248.589844 1566.699219 1248.230469 1566.328125 1246.839844 C 1565.960938 1245.429688 1564.898438 1245.339844 1564.261719 1244.53125 C 1629.191406 1237.558594 1667.019531 1209.691406 1696.398438 1177.628906 C 1723.121094 1192.28125 1757.039062 1179.671875 1780.539062 1167.429688 C 1825.039062 1144.238281 1859.699219 1095.398438 1867.761719 1045.570312 C 1875.609375 997.101562 1865.46875 991.570312 1851.71875 959.269531 C 1914.160156 919.359375 1903.808594 779.460938 1880.488281 704.808594 C 1834.730469 558.351562 1733.421875 390.480469 1561.929688 378.410156 C 1488.429688 373.238281 1425.71875 388.96875 1361.320312 416.910156 C 1342.21875 425.199219 1325.25 436.949219 1308.03125 443.628906 C 1266.859375 407.28125 1302.929688 418.410156 1286.378906 350.710938 C 1245.710938 184.339844 997.4375 185.230469 904.152344 304.910156 C 887.230469 326.628906 871.15625 346.511719 858.070312 377.371094 C 852.359375 390.828125 847.035156 405.871094 842.953125 421.648438 C 839.203125 436.160156 838.960938 458.019531 833.859375 471.03125 "/>
<path fill-rule="evenodd" fill="rgb(15.989685%, 32.00531%, 64.0625%)" fill-opacity="1" d="M 1053.171875 1311.558594 C 1028.640625 1318.171875 996.691406 1344 980.84375 1361.308594 C 935.28125 1411.058594 957.820312 1625.339844 969.410156 1685.71875 C 999.753906 1843.8125 1032.148438 1916.71875 1089.988281 2059.804688 C 1096.191406 2075.136719 1103.621094 2087.273438 1108.820312 2100.75 C 1117.410156 2122.976562 1072.371094 2185.859375 1158.460938 2214.710938 C 1225.109375 2237.050781 1308.289062 2199.351562 1341.871094 2165.097656 C 1379.308594 2126.902344 1424.730469 2036.765625 1357.089844 2002.0625 C 1345.210938 1995.96875 1345.320312 1993.925781 1336.519531 1963.390625 C 1325.601562 1925.496094 1299.359375 1844.011719 1301 1810.421875 C 1331.320312 1800.28125 1358.730469 1788.949219 1384.410156 1775.121094 C 1384.488281 1741.640625 1377.460938 1709.480469 1378.191406 1670.589844 L 1407.398438 1671.710938 C 1408.269531 1689.601562 1407.761719 1706.660156 1409.121094 1723.359375 C 1410.328125 1738.109375 1415.46875 1758.660156 1415.390625 1772.289062 C 1415.230469 1799.519531 1387.921875 1831.578125 1423.089844 1850.988281 C 1428.511719 1841.445312 1434.191406 1811.308594 1438.660156 1798.179688 C 1445.488281 1778.140625 1451.769531 1763.390625 1460.339844 1746.71875 C 1478.039062 1712.300781 1495.960938 1683.378906 1518.171875 1658.121094 C 1558.210938 1612.589844 1618.71875 1554.601562 1700.179688 1550.640625 C 1707.730469 1491.75 1655.75 1427.53125 1562.308594 1439.839844 C 1466.949219 1452.398438 1421.03125 1531.660156 1402.171875 1541.089844 C 1392.570312 1532.210938 1391.429688 1533.578125 1387.269531 1521.171875 C 1396.609375 1503.410156 1404.921875 1503.179688 1411.890625 1492.28125 C 1420.019531 1479.578125 1410.148438 1472.761719 1407.199219 1453.621094 C 1400.300781 1408.808594 1418.789062 1396.078125 1422.921875 1364.269531 C 1401.53125 1346.800781 1303.351562 1306.820312 1271.941406 1310.550781 C 1262.460938 1389.75 1243.171875 1452.011719 1158.089844 1453.910156 C 1116.980469 1454.828125 1089.929688 1438.761719 1069.089844 1415 C 1033.988281 1374.988281 1050.511719 1333.25 1053.171875 1311.558594 "/>
<path fill-rule="evenodd" fill="rgb(100%, 100%, 100%)" fill-opacity="1" d="M 967.011719 706.800781 C 935.371094 705.320312 925.503906 692.738281 905.367188 682.488281 C 885.617188 725.300781 921.933594 756.371094 947.738281 769.269531 C 979.734375 785.269531 1022.238281 794.140625 1063.261719 790.871094 C 1169.128906 782.441406 1235.878906 710.230469 1189.488281 666.539062 C 1171.300781 670.769531 1148.019531 688.339844 1128.941406 680.898438 C 1133.101562 674.070312 1128.109375 680.140625 1134.191406 674.738281 C 1144.589844 665.5 1203.511719 638.28125 1240.058594 599.050781 C 1363.210938 466.859375 1242.988281 373.148438 1160.289062 480.828125 C 1144.871094 500.910156 1137.949219 531.878906 1158.78125 547.730469 C 1186.640625 568.921875 1215.25 548.421875 1238.628906 544.179688 C 1227.601562 569.359375 1192.269531 587.921875 1154.671875 572.410156 C 1127.488281 561.199219 1142.570312 571.53125 1113.410156 577.308594 C 1083.191406 583.308594 1093.28125 567.449219 1075.648438 591.320312 C 1033.238281 648.738281 927.476562 594.261719 946.78125 529.21875 C 960.523438 552.609375 975.503906 579.078125 998.527344 589.378906 C 1061.839844 617.710938 1122.691406 524.421875 1006.179688 449.261719 C 994.546875 441.75 979.066406 434.820312 970.828125 426.378906 C 985.871094 418.460938 1092.730469 441.140625 1092.75 552.078125 C 1105.941406 556.328125 1115.78125 552.691406 1125.589844 547.289062 C 1123.921875 512.410156 1120.679688 518 1132.929688 484.710938 C 1145.898438 449.460938 1104.210938 404.28125 1079.378906 386.628906 C 1073.070312 382.140625 1064.171875 376.109375 1055.578125 372.070312 C 1048.550781 368.75 1039.640625 367.121094 1033.660156 361.929688 C 1026.398438 355.640625 1034.199219 365.929688 1027.96875 354.941406 C 1093.101562 355.808594 1144.578125 395.828125 1157.828125 448.21875 C 1168.449219 441.078125 1191.769531 428.121094 1199.488281 419.398438 C 1181.71875 334.300781 1098.980469 308.160156 1091.628906 297.628906 C 1160.128906 291.109375 1215.519531 352.859375 1224.378906 413.308594 L 1263.5 413.261719 C 1272.671875 332.171875 1224.53125 275.820312 1145.941406 253.78125 C 1015.871094 217.300781 853.523438 332.808594 861.941406 524.101562 C 864.511719 582.480469 888.078125 633.390625 927.667969 670.78125 C 933.335938 676.128906 938.136719 681.140625 945.988281 687.25 C 964.382812 701.570312 959.875 692.5 967.011719 706.800781 "/>
<path fill-rule="evenodd" fill="rgb(93.943787%, 82.03125%, 66.992188%)" fill-opacity="1" d="M 1447.679688 837.601562 C 1478.691406 840.550781 1499.289062 848.019531 1524.199219 858.078125 C 1544.261719 830.609375 1535.898438 803.539062 1571.859375 777.480469 C 1608.199219 751.148438 1645.699219 771.96875 1660.628906 799.03125 C 1683.75 840.960938 1659.191406 958.589844 1597.96875 974.449219 L 1593.328125 1001.089844 C 1632.53125 997.941406 1644.839844 975.539062 1668.359375 962.511719 C 1694.71875 1012.828125 1699.101562 1071.589844 1620.5 1062.878906 C 1615.980469 1083.390625 1600.769531 1100.980469 1581.710938 1108.101562 C 1547.25 1120.960938 1538.640625 1094.699219 1517.5 1113.300781 C 1504.71875 1124.550781 1491.378906 1179 1445.949219 1212.789062 C 1405.960938 1242.519531 1323.539062 1234.429688 1318.011719 1116.859375 C 1317.359375 1102.960938 1318.609375 1088.238281 1317.941406 1074.828125 C 1317.050781 1057.140625 1311.210938 1056.941406 1308.039062 1040.03125 C 1286.558594 1038.980469 1270.859375 1031.589844 1259.210938 1019.199219 C 1244.191406 1003.238281 1246.871094 983.179688 1251.75 959.828125 C 1243.949219 950.339844 1206.910156 940.941406 1219.691406 895.871094 C 1226.558594 871.660156 1248.570312 851.96875 1273.171875 846.570312 C 1290.980469 878.011719 1278.878906 895.578125 1315.070312 918.921875 C 1323.28125 867.808594 1294.898438 888.070312 1309.359375 814.550781 C 1331.640625 701.289062 1410.089844 691.410156 1440.589844 729.601562 C 1464.660156 759.730469 1454.960938 798.078125 1447.679688 837.601562 Z M 1475.800781 736.230469 C 1460.078125 708.378906 1444.21875 670.621094 1411.460938 660.988281 C 1367.859375 648.160156 1327.609375 680.140625 1318.839844 706.808594 C 1312.660156 699.101562 1313.679688 689.050781 1311.519531 685.050781 C 1275.800781 695.769531 1273.050781 689.171875 1240.828125 682.441406 C 1217.808594 756.929688 1222.648438 736.269531 1240.820312 811.121094 C 1251.441406 854.851562 1225.21875 843.769531 1218.691406 863.878906 C 1207.25 899.101562 1216.171875 891.140625 1182.828125 904.039062 C 1180.960938 942.328125 1185.941406 990.960938 1189.601562 1029.339844 C 1195.800781 1094.339844 1208.109375 1117.308594 1262.570312 1158.691406 C 1288.058594 1178.070312 1288.449219 1231.699219 1369.128906 1254.53125 C 1443.660156 1275.621094 1498.199219 1230.980469 1529.488281 1226.539062 C 1619.191406 1213.820312 1701.609375 1176.589844 1712.558594 1071.398438 C 1692.699219 1049.949219 1680.960938 1063.140625 1699.371094 1009.140625 C 1707.761719 984.53125 1673.960938 978.398438 1714.808594 944.679688 C 1750.960938 914.839844 1780.558594 897.449219 1766.789062 821.710938 C 1736.601562 819.570312 1735.25 814.238281 1715.96875 802.089844 C 1715.371094 802.761719 1714.550781 802.988281 1714.28125 804.199219 C 1714.019531 805.398438 1712.96875 805.839844 1712.601562 806.269531 L 1702.328125 816.640625 C 1681.609375 670.21875 1585.628906 744.011719 1548.628906 758.621094 C 1557.539062 727.96875 1584.089844 714.621094 1604.789062 694.851562 C 1597.351562 687.101562 1585.429688 682 1576.109375 677.671875 C 1546.308594 663.820312 1494.339844 650.691406 1462.039062 650.519531 C 1465.839844 674.460938 1486.570312 711.410156 1475.800781 736.230469 "/>
<path fill-rule="evenodd" fill="rgb(83.984375%, 8.006287%, 14.988708%)" fill-opacity="1" d="M 980.757812 1325.179688 C 991.925781 1319.070312 1002.390625 1305.25 1035.679688 1287.441406 C 1067.199219 1270.570312 1070.691406 1280.328125 1092.511719 1249.941406 C 1117.769531 1214.78125 1145.390625 1177.871094 1167.441406 1136.46875 C 1183.601562 1106.121094 1176.089844 1097.898438 1170.941406 1061.769531 C 1167.078125 1034.679688 1163.378906 1005.808594 1161.289062 977.261719 C 1156.828125 916.171875 1153.601562 861.191406 1151.578125 798.511719 C 1123.101562 800.761719 1113.621094 817.269531 1046.539062 817.808594 C 1024.480469 817.980469 1008.148438 817.199219 988.324219 812.660156 C 969.402344 808.339844 956.136719 801.300781 938.488281 798.921875 C 934.675781 873.058594 966.1875 1011.601562 983.886719 1078.03125 L 1021.828125 1204.398438 C 1023.421875 1226.238281 981.425781 1293.449219 980.757812 1325.179688 "/>
<path fill-rule="evenodd" fill="rgb(1.000977%, 1.000977%, 1.000977%)" fill-opacity="1" d="M 1338.550781 1151.589844 C 1375.421875 1120.511719 1438.730469 1147.960938 1451.960938 1182.96875 C 1424.191406 1231.25 1339.398438 1206.441406 1338.550781 1151.589844 Z M 1336.050781 1099.289062 L 1335.628906 1082.25 C 1373.820312 1094.480469 1375.988281 1092.449219 1416.121094 1083.941406 C 1433.640625 1106.699219 1444.910156 1128.019531 1492.160156 1124.539062 L 1482.699219 1149.648438 C 1459.878906 1141.808594 1440.03125 1128.359375 1413.660156 1119.300781 C 1391.730469 1111.769531 1351.148438 1105.878906 1336.050781 1099.289062 Z M 1400.378906 861.988281 C 1465.820312 845.558594 1535.980469 876.160156 1561.160156 912.539062 C 1589.089844 952.910156 1582.199219 1030.039062 1511.410156 1048.058594 C 1367.800781 1084.628906 1253.03125 898.960938 1400.378906 861.988281 Z M 1551.019531 850.308594 C 1571.730469 845.839844 1568.328125 858.828125 1563.628906 873.878906 C 1539.339844 878.378906 1543.460938 860.039062 1551.019531 850.308594 Z M 1412.671875 812.859375 C 1429.101562 801.601562 1431.488281 829.140625 1420.679688 835.769531 C 1407.519531 843.839844 1397.160156 823.480469 1412.671875 812.859375 Z M 1553.351562 821.488281 C 1597.648438 759.371094 1638.550781 881.800781 1586.980469 921.238281 C 1565.140625 880.679688 1587.179688 903.671875 1587.660156 862.210938 C 1588.078125 825.699219 1573.378906 830.910156 1553.351562 821.488281 Z M 1631.519531 786.28125 C 1670.289062 809.398438 1653.171875 879.609375 1637.75 912.941406 C 1625.808594 938.78125 1619.289062 943.109375 1601.550781 959.171875 C 1577.671875 931.648438 1609.96875 912.101562 1616.089844 871.078125 C 1626.46875 801.570312 1576.828125 800.890625 1569.160156 795.621094 C 1586.058594 786.261719 1605.230469 770.589844 1631.519531 786.28125 Z M 1357.128906 858.660156 C 1354.058594 753.738281 1444.738281 737.039062 1439.558594 795.300781 C 1415.390625 778.738281 1398.351562 792.339844 1388.761719 810.398438 C 1372.71875 840.628906 1393.398438 845.679688 1357.128906 858.660156 Z M 1328.261719 882.859375 C 1310.488281 841.320312 1328.558594 781.28125 1350.5 751.199219 C 1381.078125 709.269531 1442.699219 717.371094 1438.761719 766.53125 C 1416.71875 740.839844 1348.960938 759.808594 1350.429688 866.148438 C 1338.789062 872.578125 1337.769531 876.398438 1328.261719 882.859375 Z M 1447.679688 837.601562 C 1454.960938 798.078125 1464.660156 759.730469 1440.589844 729.601562 C 1410.089844 691.410156 1331.640625 701.289062 1309.359375 814.550781 C 1294.898438 888.070312 1323.28125 867.808594 1315.070312 918.921875 C 1278.878906 895.578125 1290.980469 878.011719 1273.171875 846.570312 C 1248.570312 851.96875 1226.558594 871.660156 1219.691406 895.871094 C 1206.910156 940.941406 1243.949219 950.339844 1251.75 959.828125 C 1246.871094 983.179688 1244.191406 1003.238281 1259.210938 1019.199219 C 1270.859375 1031.589844 1286.558594 1038.980469 1308.039062 1040.03125 C 1311.210938 1056.941406 1317.050781 1057.140625 1317.941406 1074.828125 C 1318.609375 1088.238281 1317.359375 1102.960938 1318.011719 1116.859375 C 1323.539062 1234.429688 1405.960938 1242.519531 1445.949219 1212.789062 C 1491.378906 1179 1504.71875 1124.550781 1517.5 1113.300781 C 1538.640625 1094.699219 1547.25 1120.960938 1581.710938 1108.101562 C 1600.769531 1100.980469 1615.980469 1083.390625 1620.5 1062.878906 C 1699.101562 1071.589844 1694.71875 1012.828125 1668.359375 962.511719 C 1644.839844 975.539062 1632.53125 997.941406 1593.328125 1001.089844 L 1597.96875 974.449219 C 1659.191406 958.589844 1683.75 840.960938 1660.628906 799.03125 C 1645.699219 771.96875 1608.199219 751.148438 1571.859375 777.480469 C 1535.898438 803.539062 1544.261719 830.609375 1524.199219 858.078125 C 1499.289062 848.019531 1478.691406 840.550781 1447.679688 837.601562 "/>
<path fill-rule="evenodd" fill="rgb(68.943787%, 50.976562%, 36.009216%)" fill-opacity="1" d="M 1520.691406 2012.683594 C 1513.550781 1975.457031 1513.019531 1959.441406 1532.691406 1930.558594 C 1548.53125 1907.304688 1558.070312 1893.03125 1598.960938 1899.644531 C 1648.011719 1907.578125 1722.929688 1933.714844 1740.390625 1964.597656 C 1721.089844 1961.195312 1652.96875 1931.136719 1603.859375 1919.152344 C 1568.808594 1910.601562 1563.148438 1912.464844 1547.121094 1938.046875 C 1535.738281 1956.210938 1526.148438 1982.40625 1538.75 2004.980469 C 1561.121094 2045.039062 1627.511719 2044.089844 1675.28125 2024.375 C 1709.050781 2010.4375 1742.828125 1979.519531 1786.300781 1954.140625 C 1885.949219 1895.949219 1925.960938 1788.488281 1807.179688 1757.519531 C 1708.171875 1731.699219 1664.609375 1786.179688 1618.441406 1828.070312 C 1597.148438 1847.378906 1591.328125 1868.117188 1576.890625 1878.105469 C 1578.25 1846.210938 1605.71875 1812.789062 1621.480469 1796.410156 C 1712.109375 1702.21875 1840.820312 1725.398438 1885.671875 1789.238281 C 1884 1711.628906 1746.25 1655.371094 1621.21875 1757.609375 C 1572.328125 1797.589844 1563.410156 1830.671875 1537.851562 1880.21875 C 1527.070312 1901.128906 1506.730469 1914.027344 1496.378906 1939.613281 C 1483.570312 1971.285156 1498.820312 2000.722656 1520.691406 2012.683594 "/>
<path fill-rule="evenodd" fill="rgb(99.021912%, 99.021912%, 99.021912%)" fill-opacity="1" d="M 1712.699219 1273.621094 C 1715.300781 1275.808594 1749.191406 1297.25 1750.828125 1298.058594 C 1772.011719 1278.121094 1831.828125 1248.480469 1860.988281 1282.988281 C 1799.75 1290.238281 1806.691406 1285.328125 1763.621094 1314.101562 C 1765.699219 1324.238281 1777.640625 1350.960938 1782.730469 1363.121094 C 1803.910156 1350.171875 1863.78125 1322.761719 1888.839844 1353.808594 C 1872.308594 1363.738281 1823.070312 1352 1792.339844 1384.699219 C 1782.710938 1394.960938 1785.578125 1414.289062 1777.488281 1433.128906 C 1768.890625 1453.148438 1778.800781 1462.890625 1796.160156 1468.949219 C 1805.308594 1459.808594 1820.800781 1420.378906 1872.839844 1419.199219 C 1886.570312 1418.890625 1896.179688 1420.660156 1905.769531 1430.519531 C 1904.859375 1430.960938 1903.429688 1430.300781 1902.878906 1431.441406 L 1874.75 1436.140625 C 1792.46875 1454.519531 1799.5 1573.351562 1921.078125 1508.488281 C 1921.039062 1553.78125 1797.570312 1572.019531 1794.550781 1491.328125 C 1770 1480.339844 1768.921875 1476.820312 1754.320312 1457.738281 C 1670.328125 1465.089844 1661.570312 1398.179688 1667.148438 1385.050781 C 1682.859375 1406.148438 1680.980469 1420.808594 1710.628906 1432.519531 C 1801.140625 1468.269531 1762.339844 1274.929688 1680.359375 1300.699219 C 1657.878906 1307.769531 1647.828125 1327.828125 1643.5 1354.339844 C 1625.109375 1466.808594 1714.421875 1414.871094 1727.539062 1547.890625 C 1769.890625 1554.390625 1790.601562 1556.378906 1825.070312 1575.988281 C 1858.191406 1594.828125 1858.398438 1614.449219 1909.621094 1585.710938 C 2041.730469 1511.578125 1971.058594 1179.929688 1783.628906 1215.921875 C 1749.25 1222.53125 1718.230469 1241.671875 1712.699219 1273.621094 "/>
<path fill-rule="evenodd" fill="rgb(83.984375%, 8.006287%, 14.988708%)" fill-opacity="1" d="M 1316.429688 471.699219 C 1301.441406 606.441406 1235.78125 618.679688 1213.25 653.011719 L 1225.480469 669.199219 C 1238.269531 658.511719 1249.25 642.019531 1263.191406 629.128906 C 1277.550781 615.859375 1292.789062 604.46875 1310.789062 593.089844 C 1343.140625 572.621094 1390.589844 554.660156 1435.808594 550.429688 C 1438.761719 513.710938 1428.730469 480.480469 1482.96875 444.410156 C 1561.519531 392.160156 1725.519531 447.101562 1708.761719 569.148438 C 1704.351562 601.238281 1693.738281 605.109375 1685.46875 625.160156 C 1750.921875 674.570312 1781.980469 761.78125 1788.28125 848.980469 C 1791.050781 887.28125 1781.351562 922.390625 1783.238281 952.089844 C 1825.710938 944.429688 1843.691406 958.761719 1862.371094 879.679688 C 1873.160156 834.03125 1871.441406 783.261719 1860.839844 737.980469 C 1843.25 662.839844 1797.410156 578.71875 1758.101562 527.160156 C 1714.53125 470 1663.710938 416.339844 1566.179688 409.128906 C 1518.039062 405.570312 1465.828125 412.929688 1425.710938 425.398438 C 1395.871094 434.660156 1338.699219 455.5 1316.429688 471.699219 "/>
<path fill-rule="evenodd" fill="rgb(47.996521%, 32.00531%, 17.993164%)" fill-opacity="1" d="M 1126.019531 2235.410156 C 1119.910156 2307.75 1138.589844 2376.207031 1179.03125 2410.230469 C 1220.910156 2445.460938 1307.121094 2446.582031 1361.28125 2421.695312 C 1406.371094 2400.972656 1448.199219 2348.792969 1452.21875 2284.875 C 1454.980469 2240.875 1435.230469 2126.339844 1416.121094 2096.585938 C 1408.96875 2106.375 1404.460938 2124.347656 1397.660156 2137.242188 C 1390.238281 2151.332031 1384.398438 2159.226562 1375.351562 2170.742188 C 1360.628906 2189.480469 1338.070312 2209.019531 1312.238281 2222.71875 C 1285.820312 2236.726562 1257.570312 2246.628906 1224.421875 2248.765625 C 1180.480469 2251.601562 1162.230469 2240.785156 1126.019531 2235.410156 "/>
<path fill-rule="evenodd" fill="rgb(47.996521%, 32.00531%, 17.993164%)" fill-opacity="1" d="M 1475.179688 1970.757812 C 1483.429688 1892.679688 1504.921875 1902.871094 1521.511719 1870.628906 C 1553.199219 1809 1553.738281 1782.929688 1622.621094 1727.660156 C 1681.550781 1680.359375 1770.058594 1660.269531 1843.109375 1700.910156 C 1872.261719 1717.128906 1874.769531 1727.851562 1893.480469 1752.199219 C 1903.898438 1587.21875 1713.519531 1534.96875 1591.328125 1623.121094 C 1454.460938 1721.871094 1409.230469 1929.128906 1475.179688 1970.757812 "/>
<path fill-rule="evenodd" fill="rgb(94.921875%, 83.006287%, 66.992188%)" fill-opacity="1" d="M 1400.378906 861.988281 C 1253.03125 898.960938 1367.800781 1084.628906 1511.410156 1048.058594 C 1582.199219 1030.039062 1589.089844 952.910156 1561.160156 912.539062 C 1535.980469 876.160156 1465.820312 845.558594 1400.378906 861.988281 "/>
<path fill-rule="evenodd" fill="rgb(82.03125%, 7.006836%, 15.989685%)" fill-opacity="1" d="M 1261.628906 667.140625 C 1350.378906 676.878906 1314 618.988281 1374.289062 597.46875 C 1403.058594 587.199219 1421.628906 599.730469 1438.101562 617.03125 C 1461.339844 641.460938 1488.269531 615.378906 1583.941406 655.949219 C 1595.050781 660.660156 1603.621094 665.191406 1613.800781 671.558594 C 1631.800781 682.808594 1627.109375 682.371094 1650.96875 678.871094 C 1682.53125 674.238281 1701.320312 684.941406 1713.808594 703.929688 C 1730.75 729.671875 1724.160156 749.019531 1723.621094 781.691406 C 1734.75 789.558594 1741.648438 797.589844 1761.839844 799.378906 C 1761.378906 703.378906 1664.070312 613.761719 1565.949219 583.410156 C 1511.5 566.570312 1441.988281 564.449219 1386.160156 581.109375 C 1342.21875 594.210938 1264.890625 634.378906 1261.628906 667.140625 "/>
<path fill-rule="evenodd" fill="rgb(16.992188%, 32.00531%, 61.914062%)" fill-opacity="1" d="M 1140.371094 1233.050781 C 1251.179688 1230.390625 1245.671875 1317.929688 1214.878906 1358.378906 C 1198.371094 1380.078125 1171.089844 1399.210938 1131.359375 1391.101562 C 1085.910156 1381.820312 1090.25 1358.691406 1074.691406 1325.828125 C 1048.820312 1423.03125 1157.820312 1455.898438 1211.480469 1407.171875 C 1236.421875 1384.519531 1245.421875 1358.339844 1250.511719 1312.871094 C 1254.230469 1279.570312 1259.039062 1219.089844 1259.179688 1185.660156 C 1226.039062 1158.519531 1234.730469 1172.949219 1200.898438 1133.78125 C 1200.210938 1134.378906 1199.238281 1134.46875 1198.960938 1135.71875 C 1198.679688 1136.960938 1197.449219 1137.230469 1197.078125 1137.691406 L 1140.371094 1233.050781 "/>
<path fill-rule="evenodd" fill="rgb(93.943787%, 82.03125%, 66.992188%)" fill-opacity="1" d="M 1766.828125 1012.519531 C 1782 1010.578125 1797.308594 1004.800781 1806.511719 1019.101562 C 1777.5 1028.808594 1770.898438 1016.820312 1749.699219 1045.828125 C 1743.921875 1053.738281 1737.21875 1058.140625 1734.679688 1061.988281 C 1728.140625 1071.878906 1728.789062 1098.46875 1725.289062 1112.179688 C 1721.511719 1127.03125 1714.660156 1142.089844 1709.789062 1154.738281 C 1803.421875 1171.78125 1881.121094 1015.910156 1826.089844 978.601562 C 1815.929688 971.710938 1798.269531 968.878906 1785.519531 973.570312 C 1770.601562 979.058594 1771.011719 995.441406 1766.828125 1012.519531 "/>
<path fill-rule="evenodd" fill="rgb(98.046875%, 98.046875%, 98.046875%)" fill-opacity="1" d="M 1451.839844 547.441406 L 1485.109375 546.558594 L 1477.019531 525.171875 C 1491.441406 511.179688 1539.429688 462.460938 1552.089844 453.339844 C 1563.78125 467.378906 1568.640625 485.898438 1579.988281 500.261719 C 1597.03125 491.230469 1606.390625 479 1621.828125 469.179688 C 1631.988281 481.210938 1654.78125 556.28125 1659.78125 576.609375 L 1636.421875 588.660156 C 1647.101562 596.238281 1663.199219 608.421875 1673.070312 613.410156 C 1718.089844 560.21875 1692.289062 472.949219 1608.789062 446.46875 C 1510.941406 415.441406 1437.148438 477.089844 1451.839844 547.441406 "/>
<path fill-rule="evenodd" fill="rgb(96.09375%, 94.921875%, 28.001404%)" fill-opacity="1" d="M 1150.839844 1360.589844 C 1167.808594 1333.820312 1178.78125 1353.648438 1193.808594 1299.019531 C 1196.421875 1289.539062 1195.679688 1292.109375 1200.070312 1286.640625 C 1206.570312 1327.070312 1184.300781 1351.390625 1150.839844 1360.589844 Z M 1137.421875 1251.769531 C 1057.769531 1280.089844 1084 1403.949219 1169.078125 1371.609375 C 1249.078125 1341.199219 1225.148438 1220.578125 1137.421875 1251.769531 "/>
<path fill-rule="evenodd" fill="rgb(16.992188%, 32.00531%, 61.914062%)" fill-opacity="1" d="M 1437.039062 1466.070312 C 1448.800781 1462.601562 1445.808594 1463.191406 1454.359375 1454.921875 C 1452.238281 1415.441406 1440.898438 1394.679688 1476.46875 1368.921875 C 1488.191406 1360.429688 1501 1353.191406 1520.738281 1353.71875 C 1536.53125 1354.148438 1555.980469 1361.988281 1560.621094 1369.308594 C 1564.359375 1341.628906 1542.980469 1269.421875 1531.480469 1253.140625 C 1514.71875 1251.050781 1481.5 1263.738281 1475.699219 1277.371094 C 1468.648438 1293.941406 1463.578125 1319.519531 1456.328125 1338.308594 C 1444.261719 1369.648438 1415.109375 1429.621094 1437.039062 1466.070312 "/>
<path fill-rule="evenodd" fill="rgb(67.96875%, 50.976562%, 37.010193%)" fill-opacity="1" d="M 1211.949219 2450.34375 C 1216.679688 2453.601562 1219.769531 2458.808594 1226.488281 2463.84375 C 1312.679688 2528.414062 1484.710938 2462.675781 1466.871094 2330.863281 C 1437.738281 2411.398438 1379.878906 2458.078125 1297.609375 2461.597656 C 1260.460938 2463.183594 1238.820312 2451.675781 1211.949219 2450.34375 "/>
<path fill-rule="evenodd" fill="rgb(82.03125%, 7.006836%, 15.989685%)" fill-opacity="1" d="M 1271.480469 1285.058594 C 1366.441406 1301.371094 1360.96875 1312.300781 1430.058594 1342.269531 C 1438.449219 1331.710938 1446.878906 1297.488281 1447.910156 1279.921875 C 1314.878906 1300.980469 1299.171875 1226.628906 1275.058594 1215.96875 L 1271.480469 1285.058594 "/>
<path fill-rule="evenodd" fill="rgb(98.046875%, 98.046875%, 98.046875%)" fill-opacity="1" d="M 1569.160156 795.621094 C 1576.828125 800.890625 1626.46875 801.570312 1616.089844 871.078125 C 1609.96875 912.101562 1577.671875 931.648438 1601.550781 959.171875 C 1619.289062 943.109375 1625.808594 938.78125 1637.75 912.941406 C 1653.171875 879.609375 1670.289062 809.398438 1631.519531 786.28125 C 1605.230469 770.589844 1586.058594 786.261719 1569.160156 795.621094 "/>
<path fill-rule="evenodd" fill="rgb(98.046875%, 98.046875%, 98.046875%)" fill-opacity="1" d="M 1328.261719 882.859375 C 1337.769531 876.398438 1338.789062 872.578125 1350.429688 866.148438 C 1348.960938 759.808594 1416.71875 740.839844 1438.761719 766.53125 C 1442.699219 717.371094 1381.078125 709.269531 1350.5 751.199219 C 1328.558594 781.28125 1310.488281 841.320312 1328.261719 882.859375 "/>
<path fill-rule="evenodd" fill="rgb(63.084412%, 30.004883%, 35.009766%)" fill-opacity="1" d="M 1338.550781 1151.589844 C 1339.398438 1206.441406 1424.191406 1231.25 1451.960938 1182.96875 C 1438.730469 1147.960938 1375.421875 1120.511719 1338.550781 1151.589844 "/>
<path fill-rule="evenodd" fill="rgb(98.046875%, 98.046875%, 98.046875%)" fill-opacity="1" d="M 1506.808594 547.890625 C 1527.621094 549.820312 1546.769531 553.578125 1565.820312 559.089844 C 1585.5 564.78125 1603.019531 574.75 1619.75 579.550781 L 1610.101562 509.28125 C 1590.019531 516.558594 1588.550781 525.71875 1573.011719 533.980469 C 1565.539062 526.710938 1553.929688 504.46875 1546.628906 494.128906 C 1534.019531 506.820312 1515.339844 532.171875 1506.808594 547.890625 "/>
<path fill-rule="evenodd" fill="rgb(94.921875%, 93.943787%, 29.00238%)" fill-opacity="1" d="M 1471.898438 1444.039062 C 1494.671875 1432.601562 1468.828125 1411 1496.410156 1395.320312 C 1493.441406 1407.851562 1489.359375 1417.589844 1491.261719 1432.171875 C 1492.570312 1431.929688 1563.648438 1410.691406 1565.851562 1409.601562 C 1562.320312 1383.660156 1535.511719 1360.300781 1501.730469 1369.691406 C 1479.308594 1375.921875 1451.03125 1416.789062 1471.898438 1444.039062 "/>
<path fill-rule="evenodd" fill="rgb(39.988708%, 17.993164%, 5.999756%)" fill-opacity="1" d="M 1718.851562 998.179688 C 1712.710938 1009.859375 1698.761719 1027.21875 1708.988281 1044.589844 C 1745.589844 1067.558594 1775.148438 951.679688 1769.421875 917.101562 C 1765.699219 935.628906 1719.21875 958.171875 1712.511719 970.578125 C 1702.960938 988.25 1714.160156 985.441406 1718.851562 998.179688 "/>
<path fill-rule="evenodd" fill="rgb(82.03125%, 7.006836%, 15.989685%)" fill-opacity="1" d="M 1626.089844 1413.96875 C 1624.539062 1399.140625 1621.210938 1387.410156 1620.820312 1371.238281 C 1620.238281 1347.589844 1625.710938 1348.359375 1612.609375 1331.78125 C 1604.910156 1322.050781 1579.78125 1291.230469 1567.910156 1285.621094 C 1569.53125 1304.011719 1579.378906 1337.800781 1583.929688 1359.78125 C 1593.300781 1405.109375 1575.550781 1411.519531 1626.089844 1413.96875 "/>
<path fill-rule="evenodd" fill="rgb(39.988708%, 17.993164%, 5.999756%)" fill-opacity="1" d="M 1183.828125 775.550781 C 1182 822 1179.679688 864.421875 1183.660156 879.171875 C 1183.949219 880.210938 1184.519531 881.398438 1184.78125 882.230469 C 1185.039062 883.058594 1185.488281 884.289062 1186 885.238281 C 1208.128906 879.578125 1204.769531 865.351562 1204.570312 841.28125 C 1221.988281 831.710938 1234.289062 841.640625 1221.511719 802.160156 C 1218.558594 793.050781 1209.589844 759.808594 1206.921875 755.488281 L 1183.828125 775.550781 "/>
<path fill-rule="evenodd" fill="rgb(98.046875%, 98.046875%, 98.046875%)" fill-opacity="1" d="M 1416.121094 1083.941406 C 1375.988281 1092.449219 1373.820312 1094.480469 1335.628906 1082.25 L 1336.050781 1099.289062 C 1351.148438 1105.878906 1391.730469 1111.769531 1413.660156 1119.300781 C 1440.03125 1128.359375 1459.878906 1141.808594 1482.699219 1149.648438 L 1492.160156 1124.539062 C 1444.910156 1128.019531 1433.640625 1106.699219 1416.121094 1083.941406 "/>
<path fill-rule="evenodd" fill="rgb(51.951599%, 81.054688%, 96.09375%)" fill-opacity="1" d="M 1357.128906 858.660156 C 1393.398438 845.679688 1372.71875 840.628906 1388.761719 810.398438 C 1398.351562 792.339844 1415.390625 778.738281 1439.558594 795.300781 C 1444.738281 737.039062 1354.058594 753.738281 1357.128906 858.660156 "/>
<path fill-rule="evenodd" fill="rgb(51.951599%, 81.054688%, 96.09375%)" fill-opacity="1" d="M 1553.351562 821.488281 C 1573.378906 830.910156 1588.078125 825.699219 1587.660156 862.210938 C 1587.179688 903.671875 1565.140625 880.679688 1586.980469 921.238281 C 1638.550781 881.800781 1597.648438 759.371094 1553.351562 821.488281 "/>
<path fill-rule="evenodd" fill="rgb(7.006836%, 4.998779%, 2.999878%)" fill-opacity="1" d="M 1150.839844 1360.589844 C 1184.300781 1351.390625 1206.570312 1327.070312 1200.070312 1286.640625 C 1195.679688 1292.109375 1196.421875 1289.539062 1193.808594 1299.019531 C 1178.78125 1353.648438 1167.808594 1333.820312 1150.839844 1360.589844 "/>
<path fill-rule="evenodd" fill="rgb(98.046875%, 98.046875%, 98.046875%)" fill-opacity="1" d="M 1412.671875 812.859375 C 1397.160156 823.480469 1407.519531 843.839844 1420.679688 835.769531 C 1431.488281 829.140625 1429.101562 801.601562 1412.671875 812.859375 "/>
<path fill-rule="evenodd" fill="rgb(97.068787%, 97.068787%, 97.068787%)" fill-opacity="1" d="M 1551.019531 850.308594 C 1543.460938 860.039062 1539.339844 878.378906 1563.628906 873.878906 C 1568.328125 858.828125 1571.730469 845.839844 1551.019531 850.308594 "/>
</svg>
